0
SECTION
2
HEADER
9
$INSUNITS
70
4
9
$ACADVER
1
AC1014
9
$HANDSEED
5
FFFF
0
ENDSEC
0
SECTION
2
TABLES
0
TABLE
2
VPORT
5
8
100
AcDbSymbolTable
0
ENDTAB
0
TABLE
2
LTYPE
5
5
100
AcDbSymbolTable
0
LTYPE
5
14
100
AcDbSymbolTableRecord
100
AcDbLinetypeTableRecord
2
BYBLOCK
70
0
0
LTYPE
5
15
100
AcDbSymbolTableRecord
100
AcDbLinetypeTableRecord
2
BYLAYER
70
0
0
ENDTAB
0
TABLE
2
LAYER
5
2
100
AcDbSymbolTable
70
2
0
LAYER
5
50
100
AcDbSymbolTableRecord
100
AcDbLayerTableRecord
2
0
70
0
6
CONTINUOUS
0
ENDTAB
0
TABLE
2
STYLE
5
3
100
AcDbSymbolTable
70
1
0
STYLE
5
11
100
AcDbSymbolTableRecord
100
AcDbTextStyleTableRecord
2
STANDARD
70
0
0
ENDTAB
0
TABLE
2
VIEW
5
6
100
AcDbSymbolTable
70
0
0
ENDTAB
0
TABLE
2
UCS
5
7
100
AcDbSymbolTable
70
0
0
ENDTAB
0
TABLE
2
APPID
5
9
100
AcDbSymbolTable
70
2
0
APPID
5
12
100
AcDbSymbolTableRecord
100
AcDbRegAppTableRecord
2
ACAD
70
0
0
ENDTAB
0
TABLE
2
DIMSTYLE
5
A
100
AcDbSymbolTable
70
1
0
ENDTAB
0
TABLE
2
BLOCK_RECORD
5
1
100
AcDbSymbolTable
70
1
0
BLOCK_RECORD
5
1F
100
AcDbSymbolTableRecord
100
AcDbBlockTableRecord
2
*MODEL_SPACE
0
BLOCK_RECORD
5
1B
100
AcDbSymbolTableRecord
100
AcDbBlockTableRecord
2
*PAPER_SPACE
0
ENDTAB
0
ENDSEC
0
SECTION
2
BLOCKS
0
BLOCK
5
20
100
AcDbEntity
100
AcDbBlockBegin
2
*MODEL_SPACE
0
ENDBLK
5
21
100
AcDbEntity
100
AcDbBlockEnd
0
BLOCK
5
1C
100
AcDbEntity
100
AcDbBlockBegin
2
*PAPER_SPACE
0
ENDBLK
5
1D
100
AcDbEntity
100
AcDbBlockEnd
0
ENDSEC
0
SECTION
2
ENTITIES
0
ARC
5
100
100
AcDbEntity
8
OUTER_PROFILES
100
AcDbCircle
10
-57.585344644885019
20
44.085344644885005
30
0
40
1.5000000000000036
210
0
220
0
230
-1
100
AcDbArc
50
90
51
180
0
LINE
5
101
100
AcDbEntity
8
OUTER_PROFILES
100
AcDbLine
10
59.085344644885026
20
44.085344644885005
30
0
11
59.085344644885026
21
10
31
0
0
ARC
5
102
100
AcDbEntity
8
OUTER_PROFILES
100
AcDbCircle
10
49.085344644885033
20
9.9999999999999964
30
0
40
9.9999999999999964
210
0
220
0
230
1
100
AcDbArc
50
-90.000000000000057
51
0
0
LINE
5
103
100
AcDbEntity
8
OUTER_PROFILES
100
AcDbLine
10
49.085344644885026
20
0
30
0
11
0
21
3.0531133177191805e-15
31
0
0
ARC
5
104
100
AcDbEntity
8
OUTER_PROFILES
100
AcDbCircle
10
-8.8817841970012523e-15
20
1.5000000000000036
30
0
40
1.5000000000000004
210
-0
220
0
230
-1
100
AcDbArc
50
270.00000000000034
51
360
0
LINE
5
105
100
AcDbEntity
8
OUTER_PROFILES
100
AcDbLine
10
-1.4999999999999916
20
1.5000000000000027
30
0
11
-1.4999999999999827
21
23.499999999999996
31
0
0
ARC
5
106
100
AcDbEntity
8
OUTER_PROFILES
100
AcDbCircle
10
-1.7763568394002505e-14
20
23.499999999999996
30
0
40
1.5000000000000004
210
0
220
0
230
-1
100
AcDbArc
50
0
51
89.999999999999943
0
LINE
5
107
100
AcDbEntity
8
OUTER_PROFILES
100
AcDbLine
10
1.6339452254516265e-14
20
24.999999999999996
30
0
11
16.920000000000009
21
25
31
0
0
ARC
5
108
100
AcDbEntity
8
OUTER_PROFILES
100
AcDbCircle
10
-16.920000000000009
20
23.5
30
0
40
1.4999999999999991
210
0
220
0
230
-1
100
AcDbArc
50
90
51
180
0
LINE
5
109
100
AcDbEntity
8
OUTER_PROFILES
100
AcDbLine
10
18.420000000000009
20
23.5
30
0
11
18.420000000000016
21
21.419999999999998
31
0
0
SPLINE
5
110
100
AcDbEntity
8
OUTER_PROFILES
100
AcDbSpline
70
0
71
3
72
14
73
10
74
0
42
0.000000001
43
0.0000000001
44
0.0000000001
40
0.46958520018062933
40
0.46958520018062933
40
0.46958520018062933
40
0.46958520018062933
40
0.5292896794620241
40
0.5292896794620241
40
0.5292896794620241
40
0.60793260841301622
40
0.60793260841301622
40
0.60793260841301622
40
0.70278033897264192
40
0.70278033897264192
40
0.70278033897264192
40
0.70278033897264192
10
20.730658332921962
20
19.920000000000002
30
0
10
20.424666624947264
20
19.920000000000002
30
0
10
20.10879649241452
20
19.953021476822315
30
0
10
19.834874345360699
20
20.021255930549025
30
0
10
19.474063226862771
20
20.111134568819168
30
0
10
19.120521563640708
20
20.283491827651851
30
0
10
18.878748631276842
20
20.496818932739863
30
0
10
18.587157076240164
20
20.75410324366706
30
0
10
18.420000000000016
20
21.103840898134582
30
0
10
18.420000000000016
20
21.419999999999998
30
0
0
LINE
5
111
100
AcDbEntity
8
OUTER_PROFILES
100
AcDbLine
10
20.730658332921962
20
19.920000000000002
30
0
11
24.165344644885025
21
19.920000000000002
31
0
0
LINE
5
112
100
AcDbEntity
8
OUTER_PROFILES
100
AcDbLine
10
24.165344644885025
20
19.920000000000002
30
0
11
24.165344644885014
21
44.085344644885012
31
0
0
ARC
5
113
100
AcDbEntity
8
OUTER_PROFILES
100
AcDbCircle
10
-25.665344644885014
20
44.085344644885012
30
0
40
1.4999999999999991
210
0
220
0
230
-1
100
AcDbArc
50
0
51
90
0
LINE
5
114
100
AcDbEntity
8
OUTER_PROFILES
100
AcDbLine
10
25.665344644885014
20
45.585344644885019
30
0
11
57.585344644885019
21
45.585344644885012
31
0
0
LWPOLYLINE
5
115
100
AcDbEntity
8
INTERIOR_PROFILES
100
AcDbPolyline
90
4
70
1
43
0.0
10
11.100000000000014
20
17.999948775786173
42
-0.99999999999999989
10
5.9000000000000146
20
17.999948775786173
10
5.9000000000000146
20
18.999948775786173
42
-0.99999999999999989
10
11.100000000000014
20
18.999948775786173
0
LWPOLYLINE
5
116
100
AcDbEntity
8
INTERIOR_PROFILES
100
AcDbPolyline
90
8
70
1
43
0.0
10
24.165344644885025
20
7.5999487757861717
42
-0.41421356237309592
10
22.665344644885025
20
6.0999487757861708
10
19.920000000000009
20
6.0999487757861708
42
-0.41421356237309548
10
18.420000000000012
20
7.599948775786169
10
18.420000000000012
20
13.899948775786171
42
-0.4142135623730937
10
19.920000000000009
20
15.39994877578617
10
22.665344644885025
20
15.39994877578617
42
-0.41421356237309465
10
24.165344644885025
20
13.899948775786171
0
CIRCLE
5
117
100
AcDbEntity
8
INTERIOR_PROFILES
100
AcDbCircle
10
-47.085344644885012
20
43.085344644885012
30
0
40
1.6000000000000014
210
0
220
0
230
-1
0
CIRCLE
5
118
100
AcDbEntity
8
INTERIOR_PROFILES
100
AcDbCircle
10
-8.5000000000000142
20
4.4999487757861711
30
0
40
1.5999999999999992
210
0
220
0
230
-1
0
CIRCLE
5
119
100
AcDbEntity
8
INTERIOR_PROFILES
100
AcDbCircle
10
-47.085344644885012
20
28.085344644885019
30
0
40
1.6000000000000014
210
0
220
0
230
-1
0
CIRCLE
5
120
100
AcDbEntity
8
INTERIOR_PROFILES
100
AcDbCircle
10
-31.085344644885019
20
28.085344644885019
30
0
40
1.6000000000000014
210
0
220
0
230
-1
0
CIRCLE
5
121
100
AcDbEntity
8
INTERIOR_PROFILES
100
AcDbCircle
10
-31.085344644885019
20
43.085344644885012
30
0
40
1.6000000000000014
210
0
220
0
230
-1
0
LINE
5
122
100
AcDbEntity
8
BEND
100
AcDbLine
10
21.292672322442513
20
0
30
-1.4417131639037967e-15
11
21.292672322442513
21
19.920000000000002
31
-3.5011578497594036e-15
0
LINE
5
123
100
AcDbEntity
8
BEND
100
AcDbLine
10
24.165344644885014
20
22.792672322442506
30
-8.1690467709426267e-16
11
59.085344644885026
21
22.792672322442506
31
-1.4029781470930677e-14
0
LINE
5
124
100
AcDbEntity
8
BEND_EXTENT
100
AcDbLine
10
18.420000000000016
20
19.920000000000002
30
-1.9736753852482748e-15
11
18.420000000000016
21
21.419999999999998
31
-1.9736753852482748e-15
0
LINE
5
125
100
AcDbEntity
8
BEND_EXTENT
100
AcDbLine
10
18.420000000000005
20
13.899948775786171
30
-1.9736753852482709e-15
11
18.420000000000016
21
19.920000000000002
31
-1.9736753852482748e-15
0
LINE
5
126
100
AcDbEntity
8
BEND_EXTENT
100
AcDbLine
10
18.420000000000016
20
0
30
-8.634523606231183e-16
11
18.420000000000005
21
7.599948775786169
31
-1.9736753852482709e-15
0
LINE
5
127
100
AcDbEntity
8
BEND_EXTENT
100
AcDbLine
10
24.165344644885014
20
25.665344644885014
30
-2.617931647816844e-16
11
59.085344644885026
21
25.665344644885014
31
-1.3474669958618099e-14
0
LINE
5
128
100
AcDbEntity
8
BEND_EXTENT
100
AcDbLine
10
24.165344644885025
20
7.5999487757861717
30
-1.3720161894068449e-15
11
24.165344644885025
21
0
31
-1.3720161894068449e-15
0
LINE
5
129
100
AcDbEntity
8
BEND_EXTENT
100
AcDbLine
10
24.165344644885025
20
19.920000000000002
30
-1.3720161894068449e-15
11
24.165344644885025
21
13.899948775786171
31
-1.3720161894068449e-15
0
LINE
5
130
100
AcDbEntity
8
BEND_EXTENT
100
AcDbLine
10
59.085344644885026
20
19.920000000000002
30
-1.4584892983243255e-14
11
24.165344644885025
21
19.920000000000002
31
-1.3720161894068449e-15
0
ENDSEC
0
SECTION
2
OBJECTS
0
DICTIONARY
5
C
100
AcDbDictionary
3
ACAD_GROUP
350
D
3
ACAD_MLINESTYLE
350
17
0
DICTIONARY
5
D
100
AcDbDictionary
0
DICTIONARY
5
1A
330
C
100
AcDbDictionary
0
DICTIONARY
5
17
100
AcDbDictionary
0
ENDSEC
0
EOF
